<?xml version="1.0" encoding="utf-8"?>
<!-- Generator: Adobe Illustrator 24.0.2, SVG Export Plug-In . SVG Version: 6.00 Build 0)  -->
<svg version="1.1" id="Layer_1" xmlns="http://www.w3.org/2000/svg" xmlns:xlink="http://www.w3.org/1999/xlink" x="0px" y="0px"
	 viewBox="0 0 2000 2000" style="enable-background:new 0 0 2000 2000;" xml:space="preserve">
<style type="text/css">
	.st0{fill-rule:evenodd;clip-rule:evenodd;fill:url(#SVGID_1_);}
	.st1{fill:url(#SVGID_2_);}
	.st2{fill:url(#SVGID_3_);}
	.st3{fill:url(#SVGID_4_);}
	.st4{fill:url(#SVGID_5_);}
	.st5{fill:url(#SVGID_6_);}
	.st6{fill:url(#SVGID_7_);}
	.st7{fill:url(#SVGID_8_);}
	.st8{fill:url(#SVGID_9_);}
	.st9{fill:url(#SVGID_10_);}
	.st10{fill:url(#SVGID_11_);}
	.st11{fill:url(#SVGID_12_);}
	.st12{fill:url(#SVGID_13_);}
	.st13{fill:url(#SVGID_14_);}
	.st14{fill:url(#SVGID_15_);}
	.st15{fill:url(#SVGID_16_);}
	.st16{fill:url(#SVGID_17_);}
	.st17{fill:url(#SVGID_18_);}
	.st18{fill:url(#SVGID_19_);}
	.st19{fill:url(#SVGID_20_);}
	.st20{fill:#F2F2F2;}
</style>
<g>
	<g>
		<g>
			<linearGradient id="SVGID_1_" gradientUnits="userSpaceOnUse" x1="953.2236" y1="672.1396" x2="1141.5029" y2="860.4189">
				<stop  offset="0" style="stop-color:#00FFFF"/>
				<stop  offset="0.2015" style="stop-color:#39BBFF"/>
				<stop  offset="0.416" style="stop-color:#6F79FF"/>
				<stop  offset="0.611" style="stop-color:#9B45FF"/>
				<stop  offset="0.7793" style="stop-color:#BA1FFF"/>
				<stop  offset="0.9145" style="stop-color:#CD08FF"/>
				<stop  offset="0.9997" style="stop-color:#D400FF"/>
			</linearGradient>
			<path class="st0" d="M966.96,691.17c1.36-0.81,2.26-2.29,2.24-3.99c-0.04-2.53-2.1-4.54-4.62-4.52
				c-2.53,0.04-4.56,2.12-4.51,4.65c0.02,2.53,2.11,4.54,4.63,4.51h0.21c0.36,10.13-1.12,17.72-3.78,23.38
				c1.14,0.18,2.23,0.31,3.28,0.36c6.42,0.33,12.2-1.43,17.05-5.74c0.55-0.49,1.08-1,1.59-1.55
				C977.76,705.08,972.3,699.66,966.96,691.17z M1028.62,691.82h0.22c2.53,0.04,4.59-1.98,4.64-4.51c0.03-2.53-1.99-4.6-4.51-4.65
				c-2.53-0.02-4.61,2-4.65,4.52c-0.01,1.7,0.88,3.18,2.24,3.99c-5.35,8.48-10.78,13.9-16.1,17.1c0.52,0.55,1.05,1.06,1.6,1.55
				c4.86,4.31,10.62,6.06,17.05,5.74c1.06-0.05,2.16-0.18,3.28-0.36C1029.74,709.54,1028.26,701.95,1028.62,691.82z M1053.2,704.84
				c-2.53-0.04-4.61,1.99-4.65,4.51c-0.01,0.88,0.24,1.71,0.67,2.41c-10.78,5.88-40.8,17.83-51.49-24.09
				c2.01-0.46,3.51-2.24,3.54-4.4c0.04-2.53-1.99-4.6-4.51-4.63c-2.53,0.03-4.55,2.1-4.51,4.63c0.03,2.16,1.54,3.94,3.55,4.4
				c-10.68,41.92-40.72,29.97-51.48,24.09c0.42-0.7,0.66-1.53,0.65-2.41c-0.04-2.53-2.11-4.55-4.63-4.51
				c-2.53,0.04-4.56,2.11-4.51,4.63c0.02,2.53,2.1,4.55,4.63,4.51c0.7-0.01,1.35-0.16,1.92-0.46l14.63,31.5h55.86
				c7.34,0,14.44,1.07,21.14,3.08l17.13-34.58c0.6,0.3,1.24,0.45,1.93,0.46c2.53,0.04,4.6-1.99,4.64-4.51
				C1057.73,706.95,1055.72,704.88,1053.2,704.84z"/>
			<g>
				<g>
					<linearGradient id="SVGID_2_" gradientUnits="userSpaceOnUse" x1="997.7974" y1="613.4114" x2="1005.791" y2="1135.6694">
						<stop  offset="0" style="stop-color:#00FFFF"/>
						<stop  offset="0.2015" style="stop-color:#39BBFF"/>
						<stop  offset="0.416" style="stop-color:#6F79FF"/>
						<stop  offset="0.611" style="stop-color:#9B45FF"/>
						<stop  offset="0.7793" style="stop-color:#BA1FFF"/>
						<stop  offset="0.9145" style="stop-color:#CD08FF"/>
						<stop  offset="0.9997" style="stop-color:#D400FF"/>
					</linearGradient>
					<path class="st1" d="M1000,1145.14l-19.19-10.97c-34.06-19.47-68.12-41.29-101.21-64.85c-36.58-26.18-67.28-62.76-88.78-105.79
						c-20.77-41.57-31.76-86.46-31.77-129.82V679.04l30.91-6.33c63.83-13.07,128.86-35.39,193.3-66.34l16.74-8.04l16.74,8.04
						c64.43,30.95,129.47,53.28,193.3,66.34l30.91,6.33V833.7c-0.01,43.37-11,88.26-31.77,129.83
						c-21.5,43.02-52.17,79.58-88.7,105.73c-33.15,23.6-67.23,45.43-101.29,64.91L1000,1145.14z M765,683.9v149.82
						c0.02,42.44,10.79,86.41,31.15,127.16c21.07,42.16,51.12,77.99,86.91,103.6c32.93,23.44,66.81,45.15,100.71,64.52l16.23,9.28
						l16.23-9.28c33.9-19.37,67.8-41.1,100.79-64.58c35.74-25.58,65.76-61.39,86.83-103.55c20.36-40.75,31.13-84.73,31.15-127.17
						V683.9l-26.15-5.36c-64.31-13.17-129.81-35.65-194.68-66.81l-14.17-6.81l-14.17,6.81c-64.87,31.16-130.37,53.64-194.68,66.81
						L765,683.9z"/>
				</g>
				<g>
					<g>
						<linearGradient id="SVGID_3_" gradientUnits="userSpaceOnUse" x1="997.7795" y1="613.4118" x2="1005.7733" y2="1135.6716">
							<stop  offset="0" style="stop-color:#00FFFF"/>
							<stop  offset="0.2015" style="stop-color:#39BBFF"/>
							<stop  offset="0.416" style="stop-color:#6F79FF"/>
							<stop  offset="0.611" style="stop-color:#9B45FF"/>
							<stop  offset="0.7793" style="stop-color:#BA1FFF"/>
							<stop  offset="0.9145" style="stop-color:#CD08FF"/>
							<stop  offset="0.9997" style="stop-color:#D400FF"/>
						</linearGradient>
						<path class="st2" d="M1017.41,1100.82l-9.06-15.37c28.46-16.78,56.87-35.24,84.45-54.89
							c60.12-43.03,100.54-122.15,100.56-196.86V717.83c-64.08-13.75-129.08-36.18-193.37-66.73
							c-64.27,30.55-129.27,52.97-193.35,66.73v78.19l113.25,0.15h93.97c17.7,0,32.09,14.4,32.09,32.09
							c0,17.7-14.4,32.09-32.09,32.09H928.8v91.57h-17.84V842.52h102.9c7.86,0,14.25-6.39,14.25-14.25
							c0-7.86-6.39-14.25-14.25-14.25h-93.98l-131.08-0.17V703.31l7.13-1.46c66.25-13.56,133.6-36.67,200.2-68.67l3.86-1.86
							l3.86,1.86c66.61,32,133.98,55.11,200.21,68.67l7.13,1.46v130.4c-0.01,38.78-9.91,79.07-28.63,116.54
							c-19.34,38.71-46.8,71.5-79.4,94.84C1075.16,1065.03,1046.31,1083.78,1017.41,1100.82z"/>
						<g>
							<linearGradient id="SVGID_4_" gradientUnits="userSpaceOnUse" x1="914.7147" y1="614.6829" x2="922.7084" y2="1136.9423">
								<stop  offset="0" style="stop-color:#00FFFF"/>
								<stop  offset="0.2015" style="stop-color:#39BBFF"/>
								<stop  offset="0.416" style="stop-color:#6F79FF"/>
								<stop  offset="0.611" style="stop-color:#9B45FF"/>
								<stop  offset="0.7793" style="stop-color:#BA1FFF"/>
								<stop  offset="0.9145" style="stop-color:#CD08FF"/>
								<stop  offset="0.9997" style="stop-color:#D400FF"/>
							</linearGradient>
							<path class="st3" d="M936.65,951.94c0,9.26-7.51,16.77-16.77,16.77s-16.77-7.51-16.77-16.77c0-9.26,7.51-16.77,16.77-16.77
								S936.65,942.68,936.65,951.94z"/>
						</g>
						<g>
							<linearGradient id="SVGID_5_" gradientUnits="userSpaceOnUse" x1="1005.5351" y1="613.2944" x2="1013.5288" y2="1135.5535">
								<stop  offset="0" style="stop-color:#00FFFF"/>
								<stop  offset="0.2015" style="stop-color:#39BBFF"/>
								<stop  offset="0.416" style="stop-color:#6F79FF"/>
								<stop  offset="0.611" style="stop-color:#9B45FF"/>
								<stop  offset="0.7793" style="stop-color:#BA1FFF"/>
								<stop  offset="0.9145" style="stop-color:#CD08FF"/>
								<stop  offset="0.9997" style="stop-color:#D400FF"/>
							</linearGradient>
							<path class="st4" d="M1004.36,1078.68c-7.98,4.7-10.63,14.99-5.93,22.97c4.7,7.98,14.99,10.63,22.97,5.93
								c7.98-4.7,10.63-14.99,5.93-22.97C1022.62,1076.63,1012.34,1073.98,1004.36,1078.68z"/>
						</g>
					</g>
					<g>
						<linearGradient id="SVGID_6_" gradientUnits="userSpaceOnUse" x1="947.6277" y1="614.1791" x2="955.6213" y2="1136.4364">
							<stop  offset="0" style="stop-color:#00FFFF"/>
							<stop  offset="0.2015" style="stop-color:#39BBFF"/>
							<stop  offset="0.416" style="stop-color:#6F79FF"/>
							<stop  offset="0.611" style="stop-color:#9B45FF"/>
							<stop  offset="0.7793" style="stop-color:#BA1FFF"/>
							<stop  offset="0.9145" style="stop-color:#CD08FF"/>
							<stop  offset="0.9997" style="stop-color:#D400FF"/>
						</linearGradient>
						<path class="st5" d="M975.3,1096.59l-13.61-8.41c-21.8-13.47-43.61-27.96-64.84-43.09c-30.02-21.48-55.91-51.28-74.9-86.18
							c-18.29-33.62-29.49-70.54-32.4-106.75l17.79-1.43c2.71,33.75,13.18,68.21,30.29,99.65c17.71,32.55,41.77,60.28,69.6,80.19
							c16.48,11.74,33.32,23.11,50.23,33.89l0-175.44h44.96l40.61,54h35.87l-43.04-57.22l8.64-5.06
							c18.57-10.88,30.1-30.99,30.1-52.46c0-33.49-27.25-60.74-60.74-60.74h-93.98v-17.84h93.98c43.33,0,78.59,35.26,78.59,78.59
							c0,24.44-11.55,47.51-30.67,62.29l52.88,70.3h-80.53l-40.61-54H975.3L975.3,1096.59z"/>
						<g>
							<linearGradient id="SVGID_7_" gradientUnits="userSpaceOnUse" x1="917.673" y1="614.6376" x2="925.6667" y2="1136.897">
								<stop  offset="0" style="stop-color:#00FFFF"/>
								<stop  offset="0.2015" style="stop-color:#39BBFF"/>
								<stop  offset="0.416" style="stop-color:#6F79FF"/>
								<stop  offset="0.611" style="stop-color:#9B45FF"/>
								<stop  offset="0.7793" style="stop-color:#BA1FFF"/>
								<stop  offset="0.9145" style="stop-color:#CD08FF"/>
								<stop  offset="0.9997" style="stop-color:#D400FF"/>
							</linearGradient>
							<path class="st6" d="M919.88,775.38c-9.26,0-16.77-7.51-16.77-16.77s7.51-16.77,16.77-16.77c9.26,0,16.77,7.51,16.77,16.77
								S929.14,775.38,919.88,775.38z"/>
						</g>
						<g>
							<linearGradient id="SVGID_8_" gradientUnits="userSpaceOnUse" x1="794.8492" y1="616.5179" x2="802.8428" y2="1138.7747">
								<stop  offset="0" style="stop-color:#00FFFF"/>
								<stop  offset="0.2015" style="stop-color:#39BBFF"/>
								<stop  offset="0.416" style="stop-color:#6F79FF"/>
								<stop  offset="0.611" style="stop-color:#9B45FF"/>
								<stop  offset="0.7793" style="stop-color:#BA1FFF"/>
								<stop  offset="0.9145" style="stop-color:#CD08FF"/>
								<stop  offset="0.9997" style="stop-color:#D400FF"/>
							</linearGradient>
							<path class="st7" d="M815.16,850.1c-0.74-9.23-8.83-16.12-18.06-15.38c-9.23,0.74-16.12,8.83-15.38,18.06
								c0.74,9.23,8.83,16.12,18.06,15.38C809.02,867.42,815.9,859.33,815.16,850.1z"/>
						</g>
					</g>
				</g>
			</g>
		</g>
	</g>
	<g>
		<g>
			<linearGradient id="SVGID_9_" gradientUnits="userSpaceOnUse" x1="416.5538" y1="1252.5901" x2="1593.0244" y2="1252.5901">
				<stop  offset="0" style="stop-color:#00FFFF"/>
				<stop  offset="0.2015" style="stop-color:#39BBFF"/>
				<stop  offset="0.416" style="stop-color:#6F79FF"/>
				<stop  offset="0.611" style="stop-color:#9B45FF"/>
				<stop  offset="0.7793" style="stop-color:#BA1FFF"/>
				<stop  offset="0.9145" style="stop-color:#CD08FF"/>
				<stop  offset="0.9997" style="stop-color:#D400FF"/>
			</linearGradient>
			<path class="st8" d="M461.99,1303.99l-22.03-32.9h-17.77v32.9h-22.62v-102.8h46.99c12.24,0,21.76,2.99,28.56,8.96
				c6.8,5.97,10.21,14.3,10.21,24.97v0.29c0,8.32-2.03,15.1-6.09,20.34c-4.06,5.24-9.38,9.08-15.93,11.53l25.11,36.71H461.99z
				 M462.43,1236.29c0-4.89-1.57-8.57-4.7-11.01c-3.13-2.45-7.49-3.67-13.07-3.67h-22.47v29.52h22.91c5.58,0,9.86-1.32,12.85-3.96
				c2.98-2.64,4.48-6.17,4.48-10.57V1236.29z"/>
			<linearGradient id="SVGID_10_" gradientUnits="userSpaceOnUse" x1="416.5538" y1="1252.5901" x2="1593.0244" y2="1252.5901">
				<stop  offset="0" style="stop-color:#00FFFF"/>
				<stop  offset="0.2015" style="stop-color:#39BBFF"/>
				<stop  offset="0.416" style="stop-color:#6F79FF"/>
				<stop  offset="0.611" style="stop-color:#9B45FF"/>
				<stop  offset="0.7793" style="stop-color:#BA1FFF"/>
				<stop  offset="0.9145" style="stop-color:#CD08FF"/>
				<stop  offset="0.9997" style="stop-color:#D400FF"/>
			</linearGradient>
			<path class="st9" d="M606.35,1273.22c-2.74,6.41-6.53,12.04-11.38,16.89c-4.85,4.85-10.62,8.66-17.33,11.45
				c-6.71,2.79-14.02,4.19-21.96,4.19c-7.93,0-15.22-1.39-21.88-4.19c-6.66-2.79-12.41-6.56-17.26-11.31
				c-4.85-4.75-8.62-10.33-11.31-16.74c-2.69-6.41-4.04-13.29-4.04-20.63v-0.29c0-7.34,1.37-14.22,4.11-20.63
				c2.74-6.41,6.54-12.04,11.38-16.89c4.85-4.85,10.62-8.67,17.33-11.46c6.71-2.79,14.03-4.19,21.96-4.19s15.22,1.4,21.88,4.19
				c6.66,2.79,12.41,6.56,17.26,11.31c4.85,4.75,8.61,10.33,11.31,16.74c2.69,6.41,4.04,13.29,4.04,20.63v0.29
				C610.46,1259.93,609.09,1266.81,606.35,1273.22z M586.82,1252.59c0-4.41-0.76-8.57-2.28-12.48c-1.52-3.91-3.67-7.34-6.46-10.28
				c-2.79-2.94-6.09-5.26-9.91-6.98c-3.82-1.71-7.98-2.57-12.48-2.57c-4.6,0-8.79,0.83-12.56,2.5c-3.77,1.67-7,3.97-9.69,6.9
				c-2.69,2.94-4.8,6.34-6.32,10.21c-1.52,3.87-2.28,8-2.28,12.41v0.29c0,4.41,0.76,8.57,2.28,12.48c1.52,3.92,3.67,7.34,6.46,10.28
				s6.07,5.26,9.84,6.98c3.77,1.71,7.95,2.57,12.56,2.57c4.5,0,8.66-0.83,12.48-2.5c3.82-1.66,7.07-3.96,9.77-6.9
				c2.69-2.94,4.8-6.34,6.32-10.21c1.52-3.87,2.28-8,2.28-12.41V1252.59z"/>
			<linearGradient id="SVGID_11_" gradientUnits="userSpaceOnUse" x1="416.5538" y1="1252.5901" x2="1593.0244" y2="1252.5901">
				<stop  offset="0" style="stop-color:#00FFFF"/>
				<stop  offset="0.2015" style="stop-color:#39BBFF"/>
				<stop  offset="0.416" style="stop-color:#6F79FF"/>
				<stop  offset="0.611" style="stop-color:#9B45FF"/>
				<stop  offset="0.7793" style="stop-color:#BA1FFF"/>
				<stop  offset="0.9145" style="stop-color:#CD08FF"/>
				<stop  offset="0.9997" style="stop-color:#D400FF"/>
			</linearGradient>
			<path class="st10" d="M682.13,1263.02v40.97h-22.62v-40.53l-39.51-62.27h26.43l24.53,41.27l24.97-41.27h25.7L682.13,1263.02z"/>
			<linearGradient id="SVGID_12_" gradientUnits="userSpaceOnUse" x1="416.5538" y1="1252.223" x2="1593.0244" y2="1252.223">
				<stop  offset="0" style="stop-color:#00FFFF"/>
				<stop  offset="0.2015" style="stop-color:#39BBFF"/>
				<stop  offset="0.416" style="stop-color:#6F79FF"/>
				<stop  offset="0.611" style="stop-color:#9B45FF"/>
				<stop  offset="0.7793" style="stop-color:#BA1FFF"/>
				<stop  offset="0.9145" style="stop-color:#CD08FF"/>
				<stop  offset="0.9997" style="stop-color:#D400FF"/>
			</linearGradient>
			<path class="st11" d="M812.24,1303.99l-9.4-23.06h-43.47l-9.4,23.06h-23.06l44.06-103.53h20.85l44.06,103.53H812.24z
				 M781.11,1227.62l-13.66,33.34h27.32L781.11,1227.62z"/>
			<linearGradient id="SVGID_13_" gradientUnits="userSpaceOnUse" x1="416.5538" y1="1252.5901" x2="1593.0244" y2="1252.5901">
				<stop  offset="0" style="stop-color:#00FFFF"/>
				<stop  offset="0.2015" style="stop-color:#39BBFF"/>
				<stop  offset="0.416" style="stop-color:#6F79FF"/>
				<stop  offset="0.611" style="stop-color:#9B45FF"/>
				<stop  offset="0.7793" style="stop-color:#BA1FFF"/>
				<stop  offset="0.9145" style="stop-color:#CD08FF"/>
				<stop  offset="0.9997" style="stop-color:#D400FF"/>
			</linearGradient>
			<path class="st12" d="M851.75,1303.99v-102.8h22.62v82.39h51.25v20.41H851.75z"/>
			<linearGradient id="SVGID_14_" gradientUnits="userSpaceOnUse" x1="416.5538" y1="1252.5901" x2="1593.0244" y2="1252.5901">
				<stop  offset="0" style="stop-color:#00FFFF"/>
				<stop  offset="0.2015" style="stop-color:#39BBFF"/>
				<stop  offset="0.416" style="stop-color:#6F79FF"/>
				<stop  offset="0.611" style="stop-color:#9B45FF"/>
				<stop  offset="0.7793" style="stop-color:#BA1FFF"/>
				<stop  offset="0.9145" style="stop-color:#CD08FF"/>
				<stop  offset="0.9997" style="stop-color:#D400FF"/>
			</linearGradient>
			<path class="st13" d="M1077.46,1272.86c-2.64,6.27-6.39,11.7-11.23,16.3c-4.85,4.6-10.62,8.22-17.33,10.87
				c-6.71,2.64-14.08,3.97-22.1,3.97h-40.09v-102.8h40.09c8.03,0,15.39,1.3,22.1,3.89c6.71,2.59,12.48,6.19,17.33,10.79
				c4.85,4.6,8.59,10.01,11.23,16.23c2.64,6.22,3.97,12.95,3.97,20.19v0.29C1081.43,1259.84,1080.11,1266.59,1077.46,1272.86z
				 M1057.79,1252.59c0-4.5-0.76-8.67-2.28-12.48c-1.52-3.82-3.62-7.1-6.31-9.84c-2.69-2.74-5.95-4.87-9.77-6.39
				c-3.82-1.52-8.03-2.28-12.63-2.28h-17.48v61.97h17.48c4.6,0,8.81-0.73,12.63-2.2c3.82-1.47,7.07-3.57,9.77-6.31
				c2.69-2.74,4.8-5.97,6.31-9.69c1.52-3.72,2.28-7.88,2.28-12.48V1252.59z"/>
			<linearGradient id="SVGID_15_" gradientUnits="userSpaceOnUse" x1="416.5538" y1="1252.5901" x2="1593.0244" y2="1252.5901">
				<stop  offset="0" style="stop-color:#00FFFF"/>
				<stop  offset="0.2015" style="stop-color:#39BBFF"/>
				<stop  offset="0.416" style="stop-color:#6F79FF"/>
				<stop  offset="0.611" style="stop-color:#9B45FF"/>
				<stop  offset="0.7793" style="stop-color:#BA1FFF"/>
				<stop  offset="0.9145" style="stop-color:#CD08FF"/>
				<stop  offset="0.9997" style="stop-color:#D400FF"/>
			</linearGradient>
			<path class="st14" d="M1102.58,1303.99v-102.8h22.62v102.8H1102.58z"/>
			<linearGradient id="SVGID_16_" gradientUnits="userSpaceOnUse" x1="416.5538" y1="1252.5901" x2="1593.0244" y2="1252.5901">
				<stop  offset="0" style="stop-color:#00FFFF"/>
				<stop  offset="0.2015" style="stop-color:#39BBFF"/>
				<stop  offset="0.416" style="stop-color:#6F79FF"/>
				<stop  offset="0.611" style="stop-color:#9B45FF"/>
				<stop  offset="0.7793" style="stop-color:#BA1FFF"/>
				<stop  offset="0.9145" style="stop-color:#CD08FF"/>
				<stop  offset="0.9997" style="stop-color:#D400FF"/>
			</linearGradient>
			<path class="st15" d="M1225.42,1300.98c-7.3,3.18-15.64,4.77-25.04,4.77c-8.03,0-15.35-1.32-21.95-3.97
				c-6.61-2.64-12.29-6.31-17.04-11.01c-4.75-4.7-8.44-10.28-11.09-16.74c-2.64-6.46-3.96-13.51-3.96-21.15v-0.29
				c0-7.34,1.34-14.22,4.04-20.63c2.69-6.41,6.44-12.04,11.23-16.89c4.8-4.85,10.48-8.67,17.04-11.46
				c6.56-2.79,13.75-4.19,21.59-4.19c4.6,0,8.79,0.32,12.56,0.95c3.77,0.64,7.27,1.54,10.5,2.72c3.23,1.18,6.26,2.64,9.11,4.41
				c2.84,1.76,5.58,3.77,8.23,6.02l-14.25,17.18c-1.96-1.66-3.92-3.13-5.88-4.41c-1.96-1.27-3.99-2.35-6.09-3.23
				c-2.11-0.88-4.38-1.57-6.83-2.06c-2.45-0.49-5.14-0.73-8.08-0.73c-4.11,0-7.96,0.86-11.53,2.58c-3.58,1.72-6.71,4.02-9.4,6.92
				c-2.69,2.9-4.8,6.28-6.32,10.16c-1.52,3.87-2.28,8.02-2.28,12.44v0.29c0,4.71,0.76,9.05,2.28,13.03
				c1.52,3.97,3.67,7.43,6.46,10.38c2.79,2.94,6.07,5.22,9.84,6.84c3.77,1.62,7.95,2.43,12.56,2.43c8.42,0,15.52-2.07,21.29-6.21
				v-14.79h-22.76v-19.53h44.64v44.64C1239.01,1293.96,1232.72,1297.8,1225.42,1300.98z"/>
			<linearGradient id="SVGID_17_" gradientUnits="userSpaceOnUse" x1="416.5538" y1="1252.5901" x2="1593.0244" y2="1252.5901">
				<stop  offset="0" style="stop-color:#00FFFF"/>
				<stop  offset="0.2015" style="stop-color:#39BBFF"/>
				<stop  offset="0.416" style="stop-color:#6F79FF"/>
				<stop  offset="0.611" style="stop-color:#9B45FF"/>
				<stop  offset="0.7793" style="stop-color:#BA1FFF"/>
				<stop  offset="0.9145" style="stop-color:#CD08FF"/>
				<stop  offset="0.9997" style="stop-color:#D400FF"/>
			</linearGradient>
			<path class="st16" d="M1267.06,1303.99v-102.8h22.62v102.8H1267.06z"/>
			<linearGradient id="SVGID_18_" gradientUnits="userSpaceOnUse" x1="416.5538" y1="1252.5901" x2="1593.0244" y2="1252.5901">
				<stop  offset="0" style="stop-color:#00FFFF"/>
				<stop  offset="0.2015" style="stop-color:#39BBFF"/>
				<stop  offset="0.416" style="stop-color:#6F79FF"/>
				<stop  offset="0.611" style="stop-color:#9B45FF"/>
				<stop  offset="0.7793" style="stop-color:#BA1FFF"/>
				<stop  offset="0.9145" style="stop-color:#CD08FF"/>
				<stop  offset="0.9997" style="stop-color:#D400FF"/>
			</linearGradient>
			<path class="st17" d="M1361.93,1222.04v81.95h-22.62v-81.95h-31.28v-20.85h85.18v20.85H1361.93z"/>
			<linearGradient id="SVGID_19_" gradientUnits="userSpaceOnUse" x1="416.5538" y1="1252.223" x2="1593.0244" y2="1252.223">
				<stop  offset="0" style="stop-color:#00FFFF"/>
				<stop  offset="0.2015" style="stop-color:#39BBFF"/>
				<stop  offset="0.416" style="stop-color:#6F79FF"/>
				<stop  offset="0.611" style="stop-color:#9B45FF"/>
				<stop  offset="0.7793" style="stop-color:#BA1FFF"/>
				<stop  offset="0.9145" style="stop-color:#CD08FF"/>
				<stop  offset="0.9997" style="stop-color:#D400FF"/>
			</linearGradient>
			<path class="st18" d="M1487.05,1303.99l-9.4-23.06h-43.47l-9.4,23.06h-23.06l44.06-103.53h20.85l44.06,103.53H1487.05z
				 M1455.91,1227.62l-13.66,33.34h27.32L1455.91,1227.62z"/>
			<linearGradient id="SVGID_20_" gradientUnits="userSpaceOnUse" x1="416.5538" y1="1252.5901" x2="1593.0244" y2="1252.5901">
				<stop  offset="0" style="stop-color:#00FFFF"/>
				<stop  offset="0.2015" style="stop-color:#39BBFF"/>
				<stop  offset="0.416" style="stop-color:#6F79FF"/>
				<stop  offset="0.611" style="stop-color:#9B45FF"/>
				<stop  offset="0.7793" style="stop-color:#BA1FFF"/>
				<stop  offset="0.9145" style="stop-color:#CD08FF"/>
				<stop  offset="0.9997" style="stop-color:#D400FF"/>
			</linearGradient>
			<path class="st19" d="M1526.55,1303.99v-102.8h22.62v82.39h51.25v20.41H1526.55z"/>
		</g>
		<g>
			<g>
				<path class="st20" d="M784.45,1331.64h10.3l17.04,51.61l16.54-51.41h12.78l-24.17,69.84h-10.5l-17.04-49.83l-17.04,49.83h-10.5
					l-24.17-69.84h13.18l16.54,51.41L784.45,1331.64z"/>
				<path class="st20" d="M930.86,1401.18h-12.88l-7.03-16.74h-32.79l-7.13,16.74h-12.48l30.51-69.84h11.29L930.86,1401.18z
					 M894.5,1345.9l-11.89,27.74h23.87L894.5,1345.9z"/>
				<path class="st20" d="M962.56,1331.84h12.08v58.35h36.45v11h-48.54V1331.84z"/>
				<path class="st20" d="M1043.68,1331.84h12.09v58.35h36.45v11h-48.54V1331.84z"/>
				<path class="st20" d="M1176.13,1342.83h-39.23v17.83h34.77v11h-34.77v18.52h39.72v11h-51.81v-69.34h51.31V1342.83z"/>
				<path class="st20" d="M1240.32,1401.18h-12.28v-58.05h-21.99v-11.29h56.27v11.29h-21.99V1401.18z"/>
			</g>
			<rect x="1278.37" y="1360.7" class="st20" width="322.06" height="11.62"/>
			<rect x="399.58" y="1360.7" class="st20" width="322.06" height="11.62"/>
		</g>
	</g>
</g>
</svg>
